<svg fill="#000000" viewBox="0 0 128 128" id="Layer_1" version="1.1" xml:space="preserve" xmlns="http://www.w3.org/2000/svg" xmlns:xlink="http://www.w3.org/1999/xlink"><g id="SVGRepo_bgCarrier" stroke-width="0"></g><g id="SVGRepo_tracerCarrier" stroke-linecap="round" stroke-linejoin="round"></g><g id="SVGRepo_iconCarrier"> <g> <rect height="8" width="64" x="53" y="17"></rect> <rect height="8" width="64" x="53" y="60"></rect> <rect height="8" width="64" x="53" y="103"></rect> <path d="M21,121c7.7,0,14-6.3,14-14s-6.3-14-14-14S7,99.3,7,107S13.3,121,21,121z M21,101c3.3,0,6,2.7,6,6s-2.7,6-6,6s-6-2.7-6-6 S17.7,101,21,101z"></path> <path d="M21,78c7.7,0,14-6.3,14-14s-6.3-14-14-14S7,56.3,7,64S13.3,78,21,78z M21,58c3.3,0,6,2.7,6,6s-2.7,6-6,6s-6-2.7-6-6 S17.7,58,21,58z"></path> <path d="M21,35c7.7,0,14-6.3,14-14S28.7,7,21,7S7,13.3,7,21S13.3,35,21,35z M21,15c3.3,0,6,2.7,6,6s-2.7,6-6,6s-6-2.7-6-6 S17.7,15,21,15z"></path> </g> </g></svg>